<svg xmlns="http://www.w3.org/2000/svg" xmlns:xlink="http://www.w3.org/1999/xlink" width="445" height="579" version="1.1">
<style type="text/css">
.l0{
  fill: #000000;
  stroke: #000000;
  stroke-linecap:round;
  stroke-linejoin:round;
  stroke-width: 0.24;
}
.l1{
  fill: #00ddff;
  stroke: #00ddff;
  stroke-linecap:round;
  stroke-linejoin:round;
  stroke-width: 0.24;
}
.l2{
  fill: #4f4f4f; fill-opacity: 0.2;
  stroke: #4f4f4f;
  stroke-linecap:round;
  stroke-linejoin:round;
  stroke-width: 0.24;
}
.l3{
  fill: #cccccc; fill-opacity: 0.5;
  stroke: #cccccc;
  stroke-linecap:round;
  stroke-linejoin:round;
  stroke-width: 0.24;
}
.l4{
  fill: #88dd00;
  stroke: #88dd00;
  stroke-linecap:round;
  stroke-linejoin:round;
  stroke-width: 0.24;
}
.l5{
  fill: #bb2200;
  stroke: #bb2200;
  stroke-linecap:round;
  stroke-linejoin:round;
  stroke-width: 0.24;
}
.l6{
  fill: #00aaff; fill-opacity: 0.5;
  stroke: #00aaff;
  stroke-linecap:round;
  stroke-linejoin:round;
  stroke-width: 0.24;
}
.l7{
  fill: #ff0000; fill-opacity: 0.5;
  stroke: #ff0000;
  stroke-linecap:round;
  stroke-linejoin:round;
  stroke-width: 0.24;
}
.l8{
  fill: #ffff00; fill-opacity: 0.5;
  stroke: #ffff00;
  stroke-linecap:round;
  stroke-linejoin:round;
  stroke-width: 0.24;
}
.l9{
  fill: #ffffff; fill-opacity: 0.5;
  stroke: #ffffff;
  stroke-linecap:round;
  stroke-linejoin:round;
  stroke-width: 0.24;
}
.l10{
  fill: #ff00ff;
  stroke: #ff00ff;
  stroke-linecap:round;
  stroke-linejoin:round;
  stroke-width: 0.24;
}
.l11{
  fill: #00ff00; fill-opacity: 0.5;
  stroke: #00ff00;
  stroke-linecap:round;
  stroke-linejoin:round;
  stroke-width: 0.24;
}
.l12{
  fill: #0044ff; fill-opacity: 0.5;
  stroke: #0044ff;
  stroke-linecap:round;
  stroke-linejoin:round;
  stroke-width: 0.24;
}
.l13{
  fill: #aaaa00; fill-opacity: 0.5;
  stroke: #aaaa00;
  stroke-linecap:round;
  stroke-linejoin:round;
  stroke-width: 0.24;
}
.l14{
  fill: #aaccaa; fill-opacity: 0.2;
  stroke: #aaccaa;
  stroke-linecap:round;
  stroke-linejoin:round;
  stroke-width: 0.24;
}
.l15{
  fill: #ff7777; fill-opacity: 0.5;
  stroke: #ff7777;
  stroke-linecap:round;
  stroke-linejoin:round;
  stroke-width: 0.24;
}
.l16{
  fill: #bfff81; fill-opacity: 0.5;
  stroke: #bfff81;
  stroke-linecap:round;
  stroke-linejoin:round;
  stroke-width: 0.24;
}
.l17{
  fill: #00ffcc; fill-opacity: 0.2;
  stroke: #00ffcc;
  stroke-linecap:round;
  stroke-linejoin:round;
  stroke-width: 0.24;
}
.l18{
  fill: #ce0097; fill-opacity: 0.5;
  stroke: #ce0097;
  stroke-linecap:round;
  stroke-linejoin:round;
  stroke-width: 0.24;
}
.l19{
  fill: #d2d46b; fill-opacity: 0.2;
  stroke: #d2d46b;
  stroke-linecap:round;
  stroke-linejoin:round;
  stroke-width: 0.24;
}
.l20{
  fill: #ef6158; fill-opacity: 0.2;
  stroke: #ef6158;
  stroke-linecap:round;
  stroke-linejoin:round;
  stroke-width: 0.24;
}
.l21{
  fill: #fdb200; fill-opacity: 0.2;
  stroke: #fdb200;
  stroke-linecap:round;
  stroke-linejoin:round;
  stroke-width: 0.24;
}
text {font-family: Sans-Serif;}
</style>
<rect class="l0" x="0" y="0" width="445" height="579"/>
<path class="l7" d="M85.0492 175.11L85.0492 185.099"/>
<path class="l7" d="M85.0492 175.11L92.5415 172.612"/>
<path class="l7" d="M77.5569 167.617L92.5415 172.612"/>
<path class="l7" d="M77.5569 167.617L92.5415 162.623"/>
<path class="l7" d="M77.5569 157.628L92.5415 162.623"/>
<path class="l7" d="M77.5569 157.628L92.5415 152.633"/>
<path class="l7" d="M77.5569 147.638L92.5415 152.633"/>
<path class="l7" d="M77.5569 147.638L92.5415 142.643"/>
<path class="l7" d="M77.5569 137.648L92.5415 142.643"/>
<path class="l7" d="M77.5569 137.648L85.0492 135.151"/>
<path class="l7" d="M85.0492 125.161L85.0492 135.151"/>
<path class="l7" d="M87.5466 132.653L92.5415 132.653"/>
<path class="l7" d="M90.044 130.156L90.044 135.151"/>
<path class="l8" d="M85.0492 304.976L85.0492 314.966"/>
<path class="l8" d="M85.0492 304.976L92.5415 302.479"/>
<path class="l8" d="M77.5569 297.484L92.5415 302.479"/>
<path class="l8" d="M77.5569 297.484L92.5415 292.489"/>
<path class="l8" d="M77.5569 287.494L92.5415 292.489"/>
<path class="l8" d="M77.5569 287.494L92.5415 282.499"/>
<path class="l8" d="M77.5569 277.504L92.5415 282.499"/>
<path class="l8" d="M77.5569 277.504L92.5415 272.509"/>
<path class="l8" d="M77.5569 267.515L92.5415 272.509"/>
<path class="l8" d="M77.5569 267.515L85.0492 265.017"/>
<path class="l8" d="M85.0492 255.027L85.0492 265.017"/>
<path class="l8" d="M87.5466 262.52L92.5415 262.52"/>
<path class="l8" d="M90.044 260.022L90.044 265.017"/>
<path class="l9" d="M252.377 132.653L252.377 177.607"/>
<path class="l9" d="M264.864 125.161L264.864 137.648"/>
<path class="l9" d="M264.864 172.612L264.864 185.099"/>
<path class="l9" d="M247.382 140.146L247.382 170.115"/>
<path class="l9" d="M252.377 172.612L264.864 172.612"/>
<path class="l9" d="M252.377 137.648L264.864 137.648"/>
<path class="l9" d="M224.905 155.13L246.883 155.13"/>
<path class="l9" d="M259.869 175.11L264.864 172.612L259.869 170.115L259.869 175.11"/>
<path class="l7" d="M82.5517 122.664L87.5466 122.664L87.5466 127.659L82.5517 127.659L82.5517 122.664z"/>
<path class="l7" d="M82.5517 182.602L87.5466 182.602L87.5466 187.597L82.5517 187.597L82.5517 182.602z"/>
<path class="l8" d="M82.5517 252.53L87.5466 252.53L87.5466 257.525L82.5517 257.525L82.5517 252.53z"/>
<path class="l8" d="M82.5517 312.468L87.5466 312.468L87.5466 317.463L82.5517 317.463L82.5517 312.468z"/>
<path class="l9" d="M264.864 157.628L259.869 155.13L264.864 152.633L264.864 157.628"/>
<path class="l9" d="M262.367 122.664L267.361 122.664L267.361 127.659L262.367 127.659L262.367 122.664z"/>
<path class="l9" d="M222.408 152.633L227.403 152.633L227.403 157.628L222.408 157.628L222.408 152.633z"/>
<path class="l9" d="M262.367 182.602L267.361 182.602L267.361 187.597L262.367 187.597L262.367 182.602z"/>
<path class="l9" d="M264.786 155.052L264.942 155.052L264.942 155.208L264.786 155.208L264.786 155.052z"/>
<path class="l10" d="M23.8622 14.0256L26.3596 14.0256L26.3596 16.523L23.8622 16.523L23.8622 14.0256z"/>
<path class="l11" d="M23.8622 423.604L26.3596 423.604L26.3596 426.101L23.8622 426.101L23.8622 423.604z"/>
<path class="l12" d="M263.615 243.789L266.113 243.789L266.113 246.286L263.615 246.286L263.615 243.789z"/>
<path class="l13" d="M223.656 93.9433L226.154 93.9433L226.154 96.4407L223.656 96.4407L223.656 93.9433z"/>
<path class="l11" d="M323.554 247.785L326.051 247.785L326.051 250.282L323.554 250.282L323.554 247.785z"/>
<path class="l12" d="M264.864 564.708L267.986 564.708"/>
<path class="l12" d="M278.6 569.703L282.346 564.708L278.6 559.714L271.732 559.714L267.986 564.708L271.732 569.703L278.6 569.703"/>
<path class="l12" d="M263.615 563.46L266.113 563.46L266.113 565.957L263.615 565.957L263.615 563.46z"/>
<text fill="#ff0000"  xml:space="preserve" font-size="10.3893" transform="translate(56.7838, 150.828)" >R1</text>
<text fill="#ff0000"  xml:space="preserve" font-size="10.3893" transform="translate(69.2814, 138.341)" >1</text>
<text fill="#ff0000"  xml:space="preserve" font-size="10.3893" transform="translate(69.2814, 180.797)" >2</text>
<text fill="#ff0000"  xml:space="preserve" font-size="7.79198" transform="translate(95.0389, 133.485)" >vdd</text>
<text fill="#ff0000"  xml:space="preserve" font-size="7.79198" transform="translate(95.0389, 182.185)" >vref</text>
<text fill="#ffff00"  xml:space="preserve" font-size="10.3893" transform="translate(56.7838, 280.694)" >R2</text>
<text fill="#ffff00"  xml:space="preserve" font-size="10.3893" transform="translate(69.2814, 268.207)" >1</text>
<text fill="#ffff00"  xml:space="preserve" font-size="10.3893" transform="translate(69.2814, 310.663)" >2</text>
<text fill="#ffff00"  xml:space="preserve" font-size="7.79198" transform="translate(95.0389, 263.351)" >vref</text>
<text fill="#ffff00"  xml:space="preserve" font-size="7.79198" transform="translate(95.0389, 312.051)" >vss</text>
<text fill="#ffffff"  xml:space="preserve" font-size="10.3893" transform="translate(235.447, 134.595)" >M1</text>
<text fill="#ffffff"  xml:space="preserve" font-size="7.79198" transform="translate(228.834, 152.216)" >G</text>
<text fill="#ffffff"  xml:space="preserve" font-size="7.79198" transform="translate(267.361, 179.687)" >S</text>
<text fill="#ffffff"  xml:space="preserve" font-size="7.79198" transform="translate(267.361, 135.786)" >D</text>
<text fill="#ffffff"  xml:space="preserve" font-size="7.79198" transform="translate(264.864, 152.216)" >B</text>
<text fill="#ff00ff"  xml:space="preserve" font-size="14.0256" transform="translate(7.10543e-15, 10.6734)" >vdd</text>
<text fill="#00ff00"  xml:space="preserve" font-size="14.0256" transform="translate(1.57514, 420.252)" >vss</text>
<text fill="#0044ff"  xml:space="preserve" font-size="14.0256" transform="translate(267.361, 259.022)" >vout</text>
<text fill="#aaaa00"  xml:space="preserve" font-size="14.0256" transform="translate(227.403, 90.5911)" >vref</text>
<text fill="#00ff00"  xml:space="preserve" font-size="14.0256" transform="translate(327.3, 263.017)" >vss</text>
<text fill="#0044ff"  xml:space="preserve" font-size="17.1423" transform="translate(284.687, 570.908)" >vout</text>
<path class="l10" d="M85.0492 15.2743L85.0492 125.161"/>
<path class="l13" d="M85.0492 185.099L85.0492 255.027"/>
<path class="l11" d="M85.0492 314.966L85.0492 424.852"/>
<path class="l13" d="M194.936 155.13L194.936 215.069"/>
<path class="l13" d="M224.905 95.192L224.905 155.13"/>
<path class="l10" d="M264.864 15.2743L264.864 125.161"/>
<path class="l12" d="M264.864 185.099L264.864 245.038"/>
<path class="l11" d="M324.802 155.13L324.802 249.034"/>
<path class="l10" d="M25.1109 15.2743L444.679 15.2743"/>
<path class="l13" d="M194.936 155.13L224.905 155.13"/>
<path class="l11" d="M264.864 155.13L324.802 155.13"/>
<path class="l13" d="M85.0492 215.069L194.936 215.069"/>
<path class="l11" d="M25.1109 424.852L444.679 424.852"/>
</svg>
