<svg xmlns="http://www.w3.org/2000/svg" xmlns:xlink="http://www.w3.org/1999/xlink" width="1153" height="290" version="1.1">
<style type="text/css">
.l0{
  fill: #000000;
  stroke: #000000;
  stroke-linecap:round;
  stroke-linejoin:round;
  stroke-width: 0.24;
}
.l1{
  fill: #00ddff;
  stroke: #00ddff;
  stroke-linecap:round;
  stroke-linejoin:round;
  stroke-width: 0.24;
}
.l2{
  fill: #4f4f4f; fill-opacity: 0.2;
  stroke: #4f4f4f;
  stroke-linecap:round;
  stroke-linejoin:round;
  stroke-width: 0.24;
}
.l3{
  fill: #cccccc; fill-opacity: 0.5;
  stroke: #cccccc;
  stroke-linecap:round;
  stroke-linejoin:round;
  stroke-width: 0.24;
}
.l4{
  fill: #88dd00;
  stroke: #88dd00;
  stroke-linecap:round;
  stroke-linejoin:round;
  stroke-width: 0.24;
}
.l5{
  fill: #bb2200;
  stroke: #bb2200;
  stroke-linecap:round;
  stroke-linejoin:round;
  stroke-width: 0.24;
}
.l6{
  fill: #00aaff; fill-opacity: 0.5;
  stroke: #00aaff;
  stroke-linecap:round;
  stroke-linejoin:round;
  stroke-width: 0.24;
}
.l7{
  fill: #ff0000; fill-opacity: 0.5;
  stroke: #ff0000;
  stroke-linecap:round;
  stroke-linejoin:round;
  stroke-width: 0.24;
}
.l8{
  fill: #ffff00; fill-opacity: 0.5;
  stroke: #ffff00;
  stroke-linecap:round;
  stroke-linejoin:round;
  stroke-width: 0.24;
}
.l9{
  fill: #ffffff; fill-opacity: 0.5;
  stroke: #ffffff;
  stroke-linecap:round;
  stroke-linejoin:round;
  stroke-width: 0.24;
}
.l10{
  fill: #ff00ff;
  stroke: #ff00ff;
  stroke-linecap:round;
  stroke-linejoin:round;
  stroke-width: 0.24;
}
.l11{
  fill: #00ff00; fill-opacity: 0.5;
  stroke: #00ff00;
  stroke-linecap:round;
  stroke-linejoin:round;
  stroke-width: 0.24;
}
.l12{
  fill: #0044ff; fill-opacity: 0.5;
  stroke: #0044ff;
  stroke-linecap:round;
  stroke-linejoin:round;
  stroke-width: 0.24;
}
.l13{
  fill: #aaaa00; fill-opacity: 0.5;
  stroke: #aaaa00;
  stroke-linecap:round;
  stroke-linejoin:round;
  stroke-width: 0.24;
}
.l14{
  fill: #aaccaa; fill-opacity: 0.2;
  stroke: #aaccaa;
  stroke-linecap:round;
  stroke-linejoin:round;
  stroke-width: 0.24;
}
.l15{
  fill: #ff7777; fill-opacity: 0.5;
  stroke: #ff7777;
  stroke-linecap:round;
  stroke-linejoin:round;
  stroke-width: 0.24;
}
.l16{
  fill: #bfff81; fill-opacity: 0.5;
  stroke: #bfff81;
  stroke-linecap:round;
  stroke-linejoin:round;
  stroke-width: 0.24;
}
.l17{
  fill: #00ffcc; fill-opacity: 0.2;
  stroke: #00ffcc;
  stroke-linecap:round;
  stroke-linejoin:round;
  stroke-width: 0.24;
}
.l18{
  fill: #ce0097; fill-opacity: 0.5;
  stroke: #ce0097;
  stroke-linecap:round;
  stroke-linejoin:round;
  stroke-width: 0.24;
}
.l19{
  fill: #d2d46b; fill-opacity: 0.2;
  stroke: #d2d46b;
  stroke-linecap:round;
  stroke-linejoin:round;
  stroke-width: 0.24;
}
.l20{
  fill: #ef6158; fill-opacity: 0.2;
  stroke: #ef6158;
  stroke-linecap:round;
  stroke-linejoin:round;
  stroke-width: 0.24;
}
.l21{
  fill: #fdb200; fill-opacity: 0.2;
  stroke: #fdb200;
  stroke-linecap:round;
  stroke-linejoin:round;
  stroke-width: 0.24;
}
text {font-family: Sans-Serif;}
</style>
<rect class="l0" x="0" y="0" width="1153" height="290"/>
<path class="l7" d="M0 75.1397L179.641 75.1397"/>
<path class="l7" d="M179.641 75.1397L179.641 194.9"/>
<path class="l7" d="M0 194.9L179.641 194.9"/>
<path class="l7" d="M0 75.1397L0 194.9"/>
<path class="l7" d="M179.641 115.06L199.601 115.06"/>
<path class="l7" d="M179.641 154.98L199.601 154.98"/>
<path class="l7" d="M89.8204 55.1796L89.8204 75.1397"/>
<path class="l8" d="M439.122 75.1397L618.762 75.1397"/>
<path class="l8" d="M618.762 75.1397L618.762 194.9"/>
<path class="l8" d="M439.122 194.9L618.762 194.9"/>
<path class="l8" d="M439.122 75.1397L439.122 194.9"/>
<path class="l8" d="M618.762 115.06L638.723 115.06"/>
<path class="l8" d="M618.762 154.98L638.723 154.98"/>
<path class="l8" d="M528.942 194.9L528.942 214.86"/>
<path class="l9" d="M878.244 55.1796L1057.88 55.1796"/>
<path class="l9" d="M1057.88 55.1796L1057.88 214.86"/>
<path class="l9" d="M878.244 214.86L1057.88 214.86"/>
<path class="l9" d="M878.244 55.1796L878.244 214.86"/>
<path class="l9" d="M858.283 115.06L878.244 115.06"/>
<path class="l9" d="M858.283 154.98L878.244 154.98"/>
<path class="l9" d="M1057.88 95.0998L1077.84 95.0998"/>
<path class="l9" d="M1057.88 135.02L1077.84 135.02"/>
<path class="l9" d="M1057.88 174.94L1077.84 174.94"/>
<path class="l9" d="M968.064 214.86L968.064 234.82"/>
<path class="l7" d="M197.106 112.565L202.096 112.565L202.096 117.555L197.106 117.555L197.106 112.565z"/>
<path class="l7" d="M197.106 152.485L202.096 152.485L202.096 157.475L197.106 157.475L197.106 152.485z"/>
<path class="l7" d="M87.3253 52.6846L92.3154 52.6846L92.3154 57.6747L87.3253 57.6747L87.3253 52.6846z"/>
<path class="l8" d="M636.228 112.565L641.218 112.565L641.218 117.555L636.228 117.555L636.228 112.565z"/>
<path class="l8" d="M636.228 152.485L641.218 152.485L641.218 157.475L636.228 157.475L636.228 152.485z"/>
<path class="l8" d="M526.447 212.365L531.437 212.365L531.437 217.355L526.447 217.355L526.447 212.365z"/>
<path class="l9" d="M855.788 112.565L860.778 112.565L860.778 117.555L855.788 117.555L855.788 112.565z"/>
<path class="l9" d="M855.788 152.485L860.778 152.485L860.778 157.475L855.788 157.475L855.788 152.485z"/>
<path class="l9" d="M1075.35 92.6048L1080.34 92.6048L1080.34 97.5948L1075.35 97.5948L1075.35 92.6048z"/>
<path class="l9" d="M1075.35 132.525L1080.34 132.525L1080.34 137.515L1075.35 137.515L1075.35 132.525z"/>
<path class="l9" d="M1075.35 172.445L1080.34 172.445L1080.34 177.435L1075.35 177.435L1075.35 172.445z"/>
<path class="l9" d="M965.569 232.325L970.559 232.325L970.559 237.315L965.569 237.315L965.569 232.325z"/>
<path class="l10" d="M238.273 113.812L240.768 113.812L240.768 116.307L238.273 116.307L238.273 113.812z"/>
<path class="l11" d="M238.273 153.733L240.768 153.733L240.768 156.228L238.273 156.228L238.273 153.733z"/>
<path class="l12" d="M88.5729 14.012L91.0679 14.012L91.0679 16.507L88.5729 16.507L88.5729 14.012z"/>
<path class="l13" d="M677.395 113.812L679.89 113.812L679.89 116.307L677.395 116.307L677.395 113.812z"/>
<path class="l14" d="M677.395 153.733L679.89 153.733L679.89 156.228L677.395 156.228L677.395 153.733z"/>
<path class="l15" d="M527.695 253.533L530.19 253.533L530.19 256.028L527.695 256.028L527.695 253.533z"/>
<path class="l16" d="M817.116 113.812L819.611 113.812L819.611 116.307L817.116 116.307L817.116 113.812z"/>
<path class="l17" d="M817.116 153.733L819.611 153.733L819.611 156.228L817.116 156.228L817.116 153.733z"/>
<path class="l10" d="M1116.52 93.8523L1119.01 93.8523L1119.01 96.3473L1116.52 96.3473L1116.52 93.8523z"/>
<path class="l14" d="M1116.52 133.772L1119.01 133.772L1119.01 136.267L1116.52 136.267L1116.52 133.772z"/>
<path class="l11" d="M1116.52 173.693L1119.01 173.693L1119.01 176.188L1116.52 176.188L1116.52 173.693z"/>
<path class="l15" d="M966.816 273.493L969.311 273.493L969.311 275.988L966.816 275.988L966.816 273.493z"/>
<text fill="#ff0000"  xml:space="preserve" font-size="8.30339" transform="translate(167.665, 122.599)" >ref_in</text>
<text fill="#ff0000"  xml:space="preserve" font-size="8.30339" transform="translate(167.665, 162.52)" >out</text>
<text fill="#ff0000"  xml:space="preserve" font-size="8.30339" transform="translate(89.8204, 82.6792)" >supply</text>
<text fill="#ff0000"  xml:space="preserve" font-size="15.5689" transform="translate(7.98403, 97.2603)" >cm_pmos_simple_1</text>
<text fill="#ff0000"  xml:space="preserve" font-size="10.3792" transform="translate(7.98403, 180.372)" >xcm_pmos_simple_1</text>
<text fill="#ffff00"  xml:space="preserve" font-size="8.30339" transform="translate(606.786, 122.599)" >ref_in</text>
<text fill="#ffff00"  xml:space="preserve" font-size="8.30339" transform="translate(606.786, 162.52)" >out</text>
<text fill="#ffff00"  xml:space="preserve" font-size="8.30339" transform="translate(528.942, 202.44)" >supply</text>
<text fill="#ffff00"  xml:space="preserve" font-size="15.5689" transform="translate(447.106, 97.2603)" >cm_nmos_simple_1</text>
<text fill="#ffff00"  xml:space="preserve" font-size="10.3792" transform="translate(447.106, 180.372)" >xcm_nmos_simple_1</text>
<text fill="#ffffff"  xml:space="preserve" font-size="8.30339" transform="translate(890.22, 122.599)" >in_n</text>
<text fill="#ffffff"  xml:space="preserve" font-size="8.30339" transform="translate(890.22, 162.52)" >in_p</text>
<text fill="#ffffff"  xml:space="preserve" font-size="8.30339" transform="translate(1045.91, 102.639)" >out_p</text>
<text fill="#ffffff"  xml:space="preserve" font-size="8.30339" transform="translate(1045.91, 142.559)" >CM_tail</text>
<text fill="#ffffff"  xml:space="preserve" font-size="8.30339" transform="translate(1045.91, 182.48)" >out_n</text>
<text fill="#ffffff"  xml:space="preserve" font-size="8.30339" transform="translate(968.064, 222.4)" >supply</text>
<text fill="#ffffff"  xml:space="preserve" font-size="15.5689" transform="translate(886.228, 77.3002)" >dp_nmos_simple_1</text>
<text fill="#ffffff"  xml:space="preserve" font-size="10.3792" transform="translate(886.228, 200.333)" >xdp_nmos_simple_1</text>
<text fill="#ff00ff"  xml:space="preserve" font-size="14.012" transform="translate(242.016, 110.464)" >outm</text>
<text fill="#00ff00"  xml:space="preserve" font-size="14.012" transform="translate(242.016, 150.384)" >vout</text>
<text fill="#0044ff"  xml:space="preserve" font-size="14.012" transform="translate(92.3154, 10.6631)" >vdd</text>
<text fill="#aaaa00"  xml:space="preserve" font-size="14.012" transform="translate(681.138, 110.464)" >ibias</text>
<text fill="#aaccaa"  xml:space="preserve" font-size="14.012" transform="translate(681.138, 150.384)" >tail</text>
<text fill="#ff7777"  xml:space="preserve" font-size="14.012" transform="translate(531.437, 268.751)" >vss</text>
<text fill="#bfff81"  xml:space="preserve" font-size="14.012" transform="translate(790.164, 110.464)" >vinn</text>
<text fill="#00ffcc"  xml:space="preserve" font-size="14.012" transform="translate(790.164, 150.384)" >vinp</text>
<text fill="#ff00ff"  xml:space="preserve" font-size="14.012" transform="translate(1120.26, 90.5034)" >outm</text>
<text fill="#aaccaa"  xml:space="preserve" font-size="14.012" transform="translate(1120.26, 130.424)" >tail</text>
<text fill="#00ff00"  xml:space="preserve" font-size="14.012" transform="translate(1120.26, 170.344)" >vout</text>
<text fill="#ff7777"  xml:space="preserve" font-size="14.012" transform="translate(970.559, 288.711)" >vss</text>
<path class="l10" d="M199.601 115.06L239.521 115.06"/>
<path class="l11" d="M199.601 154.98L239.521 154.98"/>
<path class="l12" d="M89.8204 15.2595L89.8204 55.1796"/>
<path class="l13" d="M638.723 115.06L678.643 115.06"/>
<path class="l14" d="M638.723 154.98L678.643 154.98"/>
<path class="l15" d="M528.942 214.86L528.942 254.78"/>
<path class="l16" d="M818.363 115.06L858.283 115.06"/>
<path class="l17" d="M818.363 154.98L858.283 154.98"/>
<path class="l10" d="M1077.84 95.0998L1117.76 95.0998"/>
<path class="l14" d="M1077.84 135.02L1117.76 135.02"/>
<path class="l11" d="M1077.84 174.94L1117.76 174.94"/>
<path class="l15" d="M968.064 234.82L968.064 274.741"/>
</svg>
